Patient4_TMGait_0pt4_03_right_02_EMG.mot
version=1
nRows=26
nColumns=33
inDegrees=no
endheader
time	1LAddLong	2LGlutMax	3LGlutMed	4LIliopsoas	5LSemiMemb	6LBicFemLong	7LRecFem	8LVastMed	9LVastLat	10LGasMed	11LTibAnt	12lTibPost	13LPeroneusLong	14LSol	15LExtDigLong	16LFlexDigLong	17RAddLong	18RGlutMax	19RGlutMed	20RIliopsoas	21RSemiMemb	22RBicFemLong	23RRecFem	24RVastMed	25RVastLat	26RGasMed	27RTibAnt	28RTibPost	29RPeroneusLong	30RSol	31RExtDigLong	32RFlexDigLong
1.5	0.014954	-0.14297	-0.072632	0.006714	0.039215	-0.003052	-0.080109	0.001221	-0.00412	-0.034485	-0.10544	0.007019	-0.050507	-0.10162	0.38818	-0.00412	0.11871	-0.14618	-0.040131	-0.40161	0.0737	-0.062561	0.17425	-0.14374	0.007324	-0.013428	0.037079	-0.005951	-0.33951	-0.011749	-0.005493	-0.010529
1.501	0.006256	-0.12436	-0.13977	0.010681	0.048676	0.017395	-0.039978	0.002747	0.001678	-0.030365	0.000153	0.000153	-0.04837	-0.031586	-0.019836	0.00824	0.081482	-0.11795	-0.059357	-0.54016	0.054474	-0.055237	0.098114	-0.13351	0.00946	-0.01297	0.09079	0.000153	0.027924	-0.0354	0.00061	-0.016632
1.502	0.005646	-0.12207	-0.13001	0.022278	0.015106	0.029907	0.062561	0.012817	0.008087	-0.02533	0.010529	0.00473	-0.017548	-0.055542	-0.013123	0.007629	0.025787	-0.12543	-0.017853	-0.51849	0.037537	-0.03418	0.084991	-0.11551	0.003052	-0.009613	0.094452	-0.005798	0.61874	-0.070038	-0.01297	-0.0177
1.503	0.005493	-0.11795	-0.18433	0.031128	-0.026245	-0.011139	0.16068	0.012817	-0.032806	-0.016937	-0.01297	0.005188	0.047302	-0.063171	-0.011749	-0.002899	-0.019379	-0.13321	-0.018158	-0.30807	0.036621	-0.054169	0.059814	-0.087585	0.01236	-0.00351	0.21637	-0.002136	0.42877	-0.074158	-0.000153	-0.01297
1.504	-0.001984	-0.10819	-0.072479	0.032959	0.008545	-0.049896	0.20538	0.023193	-0.077515	-0.003815	0.023956	0.001984	0.034637	-0.052032	-0.060272	0.000763	-0.037994	-0.13641	0.059967	-0.046997	0.036163	-0.053558	0.082092	-0.074768	0.018463	-0.002441	0.10742	-0.007935	0.14435	-0.015717	-0.000305	-0.024261
1.505	0.002289	-0.12009	-0.12299	0.008698	0.007019	-0.036316	0.13779	0.006256	-0.058289	-0.004272	0.017395	0.002747	0.034027	-0.025635	-0.10635	0.011597	-0.054016	-0.08667	0.01236	0.006409	0.050812	-0.037842	0.076141	-0.032349	0.018463	-0.004425	-0.02182	-0.003204	0.077667	-0.007782	-0.000458	-0.020142
1.506	0.001526	-0.087891	-0.081482	-0.004883	0.020447	-0.025787	0.086517	-0.010834	-0.012054	0.00885	0.052032	-0.002747	0.006409	0.00473	-0.035858	0.001526	-0.056458	-0.12558	0.024567	-0.010376	0.073242	-0.04837	0.081177	-0.042267	0.012512	-0.010529	0.022888	-0.003662	-0.079651	-0.005188	0.000458	-0.008545
1.507	0.005951	-0.094757	-0.16205	0.001984	0.023956	-0.032043	-0.057831	-0.00824	0.019073	-0.013275	0.075989	0.005035	-0.019379	-0.02594	0.03006	-0.015869	-0.063171	-0.09552	0.41824	0.06958	0.083771	-0.10651	0.044708	-0.037994	0.012817	-0.004883	0.007629	-0.010071	-0.049286	0.024567	-0.000305	-0.000153
1.508	0.000763	-0.11963	-0.2623	-0.00351	0.016632	-0.033722	-0.25299	0.003357	0.076904	0.009918	-0.005035	0.007172	-0.031586	-0.028229	0.042572	0	-0.082397	-0.093689	0.21866	0.16449	0.1152	-0.10376	0.062714	0.004425	0.014343	-0.004272	-0.053406	-0.005035	0.15106	0.009613	0.003662	-0.010071
1.509	0.000153	-0.11673	-0.34302	-0.005341	0.027008	-0.004425	-0.30228	-0.002289	0.11505	0.007782	0	-0.000153	-0.016174	-0.040131	0.000305	0.021667	-0.01236	-0.09491	-0.096283	0.14999	0.10422	-0.077515	0.084686	0.006409	0.024719	-0.007324	0.074768	-0.003204	0.04715	-0.024567	0	-0.003357
1.51	-0.004272	-0.11215	-0.24826	-0.002289	0.02243	0.02594	-0.17883	-0.009155	0.12817	0.015106	-0.01236	-0.001526	0.04715	-0.027466	-0.030823	-0.00473	0.043488	-0.093231	-0.1384	0.019073	0.068512	-0.061493	0.051575	-0.02655	0.01297	-0.002289	0.17029	-0.008392	-0.14664	-0.045319	0.003967	-0.010376
1.511	-0.028229	-0.10757	0.049591	0.000458	0.009613	0.033264	-0.071564	-0.003815	0.027924	0.006561	0.000305	0.005493	-0.006104	-0.016937	-0.043335	-0.019684	0.030212	-0.099335	0.1207	-0.033875	0.043335	-0.055695	0.079041	-0.070648	-0.002289	-0.000305	0.24307	-0.003662	-0.14694	-0.006561	-0.005798	-0.010376
1.512	-0.019684	-0.14282	-0.053558	0.031586	-0.020294	0.04425	-0.020142	0.007019	-0.003052	0.007782	0.024261	0.001373	-0.11688	-0.0177	-0.038452	-0.00351	-0.023499	-0.1593	0.033264	-0.11032	0.037689	-0.054626	0.12299	-0.080261	0.006714	-0.010376	0.29159	-0.003662	-0.048676	-0.02121	-0.001373	-0.005646
1.513	-0.003357	-0.11215	-0.037842	-0.016327	-0.034027	0.038757	-0.017548	-0.011597	-0.001678	-0.008698	0.009918	0.007477	-0.09552	-0.021515	-0.008698	0.007324	-0.065765	-0.16724	0.045319	-0.12222	0.033569	-0.03479	0.10895	-0.086823	0.006256	-0.023651	0.15549	-0.005951	0.20416	-0.089111	-0.001221	-0.002747
1.514	0.006866	-0.13611	0.003204	-0.007172	-0.021362	0.026398	0.002289	-0.010223	-0.027161	-0.041351	-0.03479	0.014191	-0.032806	-0.004425	0.039825	-0.009918	-0.083771	-0.13718	0.16144	-0.13916	0.026093	-0.036163	0.11581	-0.076599	0.004425	-0.018158	0.03891	-0.008087	0.25314	-0.09491	0.001068	-0.005493
1.515	-0.000153	-0.15533	-0.010529	0.00473	0.028687	0.006714	0.1207	-0.00351	-0.069427	-0.082245	-0.046234	0.00351	0.094604	-0.002441	0.059357	0.009613	-0.10086	-0.177	0.26291	-0.05661	0.034943	-0.020447	0.085602	-0.062714	0.021515	-0.013123	0.007172	-0.005035	-0.055084	-0.093994	-0.002594	0.000305
1.516	-0.007935	-0.11795	0.075989	0.005951	0.041809	0.013733	0.1474	-0.001526	-0.038147	-0.077057	-0.001831	0.003967	0.14633	0.00412	-0.011444	0	-0.088501	-0.16724	0.063324	0.1062	0.036163	-0.003815	0.087891	-0.043488	0.011902	-0.006714	0.13473	-0.005951	-0.22064	-0.11032	-0.001984	0.003357
1.517	-0.014038	-0.098572	0.039368	0.013733	0.03067	0.024414	0.098419	0.006256	0.03006	-0.011749	-0.023041	-0.007629	0.090942	0.008392	-0.048218	-0.003357	-0.059052	-0.17624	-0.097809	0.26001	0.06546	0.001068	0.037384	-0.011444	0.018311	-0.011444	-0.30991	-0.005188	0.018616	-0.059509	-0.001526	0.000153
1.518	0.005341	-0.10819	-0.007629	0.018768	0.00824	0.014191	0.014343	0.005798	0.037689	-0.003052	-0.023499	0.003204	0.014496	0.013428	-0.086975	0.005646	-0.020752	-0.15839	0.41443	0.24933	0.1004	0.012665	0.052643	-0.020142	0.025635	-0.006104	-0.44739	-0.006256	0.13168	-0.00061	-0.000763	-0.00061
1.519	-0.000305	-0.082397	-0.11185	0.024109	0.01709	0.004883	-0.047607	0.025177	0.024719	-0.017548	0.009003	0.004578	0.007782	0.020599	-0.026703	-0.000458	0.013275	-0.16068	0.30426	0.13916	0.10162	0.053711	0.079956	-0.028381	0.025024	-0.013428	-0.11063	-0.009003	-0.15503	0.046387	-0.000153	-0.005798
1.52	0.007019	-0.054169	-0.10651	0.018005	0.019379	-0.02594	-0.089111	0.013275	0.10162	-0.031586	0.048065	0.002289	0.035858	-0.04303	0.019226	0.004883	0.010986	-0.14511	-0.16846	0.043182	0.056915	0.044098	0.066528	-0.050201	0.033112	-0.013275	-0.14587	-0.007477	-0.11215	0.076294	0.000763	0.000153
1.521	0.015106	-0.032349	0.27557	-0.026093	0.010223	-0.0383	-0.037079	-0.007935	0.049133	-0.032501	0.21347	0.005341	-0.000153	-0.14618	0.098267	0.00351	0.019836	-0.10254	-0.33432	-0.020599	-0.00885	0.040436	0.079193	-0.062866	0.007935	-0.003967	-0.17227	-0.00946	0.10559	0.037079	-0.003052	-0.002899
1.522	0.011292	-0.025787	0.15259	-0.029297	0.019989	-0.033417	-0.11597	0.011902	-0.035095	-0.018005	0.062408	0.010071	0.00351	-0.15488	0.081482	0.011139	0.043335	-0.093842	0.084839	0.011749	-0.040436	-0.002289	0.12665	-0.098419	0.020294	-0.007324	-0.18738	-0.004272	0.28641	-0.027771	-0.000916	-0.00412
1.523	0.01236	-0.032959	0.1207	-0.03891	0.00412	-0.003662	-0.23972	0.012512	0.005341	0.021362	-0.024719	-0.003815	0.007935	-0.16968	-0.01358	-0.003815	0.052643	-0.12924	0.14618	0.10635	-0.085297	-0.016937	0.12039	-0.076141	0.032501	-0.007172	-0.1416	-0.002594	0.16251	-0.061951	0.001678	0.003662
1.524	0.003052	-0.028992	0.10666	-0.012817	0.010223	-0.023956	-0.18845	0.001526	0.069427	0.05127	-0.036621	0.000916	0.009155	-0.21378	-0.002747	-0.014038	0.07309	-0.15579	0.27039	0.034637	-0.18097	0.0914	0.10101	-0.056	0.03891	-0.004272	-0.079041	-0.008087	-0.13504	-0.13107	-0.002136	0.003357
1.525	-0.010071	-0.005188	0.020599	-0.016479	0.00885	0.016327	-0.092468	0.009766	0.12619	0.074615	-0.006866	-0.001373	-0.030212	-0.10452	0.017548	0.004272	0.059967	-0.18997	0.22385	-0.13519	0.10315	0.080872	0.076447	-0.029449	0.046844	-0.003052	-0.027924	-0.008087	-0.24841	-0.1091	-0.001526	0.005798
